# xmcd
# 
# Track frame offsets:
#     150
#     16492
#     31695
#     48038
# 
# Disc length: 842
# 
# Revision: 4
# Processed by: cddbd v1.5.2PL0 Copyright (c) Steve Scherf et al.
# Submitted via: fre:ac v1.0.27
# 
DISCID=20034804
DTITLE=安室奈美恵 - Just You and I
DYEAR=2017
DGENRE=JPop
TTITLE0=Just You and I
TTITLE1=Strike A Pose
TTITLE2=Just You and I -Instrumental-
TTITLE3=Strike A Pose -Instrumental-
EXTD=
EXTT0=
EXTT1=
EXTT2=
EXTT3=
PLAYORDER=
